<svg width="600" height="600" viewBox="0 0 600 600" fill="none" xmlns="http://www.w3.org/2000/svg" role="img" aria-label="لبان الكايد — أجبان وألبان طبيعية — 0791804639">
  <defs>
    <linearGradient id="lk-green" x1="0" y1="0" x2="0" y2="1">
      <stop stop-color="#3f8f33"/><stop offset="1" stop-color="#1f5e18"/>
    </linearGradient>
    <linearGradient id="lk-word" x1="1" y1="0" x2="0" y2="0">
      <stop offset="0" stop-color="#1c1c1c"/>
      <stop offset=".5" stop-color="#1c1c1c"/>
      <stop offset=".62" stop-color="#7a1208"/>
      <stop offset=".78" stop-color="#d2261a"/>
      <stop offset="1" stop-color="#e23b2a"/>
    </linearGradient>
    <linearGradient id="lk-gold" x1="0" y1="0" x2="0" y2="1">
      <stop stop-color="#e9cf86"/><stop offset="1" stop-color="#bf9536"/>
    </linearGradient>
  </defs>

  <!-- badge body (cream shield) -->
  <path d="M300 36c-118 0-176 60-176 176v150c0 70 40 112 96 150h160c56-38 96-80 96-150V212c0-116-58-176-176-176Z"
        fill="#fdfaf2" stroke="url(#lk-gold)" stroke-width="6"/>
  <!-- top green arc -->
  <path d="M150 250a150 150 0 0 1 300 0" fill="none" stroke="url(#lk-green)" stroke-width="14" stroke-linecap="round"/>

  <!-- cow head (line art) -->
  <g stroke="#33312e" stroke-width="4" fill="#fff" stroke-linecap="round" stroke-linejoin="round">
    <path d="M255 120c-10-6-20-4-22 6 1 12 10 18 20 18"/>
    <path d="M345 120c10-6 20-4 22 6-1 12-10 18-20 18"/>
    <path d="M248 138c-18-2-30 6-30 20 0 10 8 16 18 16"/>
    <path d="M352 138c18-2 30 6 30 20 0 10-8 16-18 16"/>
    <path d="M262 134c-6-16-2-30 10-34 8 4 10 14 8 26"/>
    <path d="M338 134c6-16 2-30-10-34-8 4-10 14-8 26"/>
    <path d="M250 168c-6 22 6 52 50 52s56-30 50-52c-4-16-22-30-50-30s-46 14-50 30Z"/>
    <ellipse cx="300" cy="200" rx="22" ry="15" fill="#efe7da"/>
    <circle cx="290" cy="205" r="2.6" fill="#33312e" stroke="none"/>
    <circle cx="310" cy="205" r="2.6" fill="#33312e" stroke="none"/>
    <circle cx="276" cy="170" r="4" fill="#33312e" stroke="none"/>
    <circle cx="324" cy="170" r="4" fill="#33312e" stroke="none"/>
  </g>

  <!-- grass + leaves -->
  <g fill="#3f8f33">
    <path d="M214 250c14-8 34-8 50 2-18 4-36 2-50-2Z"/>
    <path d="M386 250c-14-8-34-8-50 2 18 4 36 2 50-2Z"/>
    <path d="M250 252c-2-12 4-22 16-26 2 12-4 22-16 26Z"/>
    <path d="M350 252c2-12-4-22-16-26-2 12 4 22 16 26Z"/>
  </g>
  <g stroke="#2f7a26" stroke-width="3" stroke-linecap="round" fill="none">
    <path d="M270 254c6-10 14-16 24-18"/><path d="M330 254c-6-10-14-16-24-18"/><path d="M300 256v-18"/>
  </g>
  <!-- milk jar -->
  <g>
    <rect x="356" y="208" width="38" height="44" rx="6" fill="#fff" stroke="#cdbf9a" stroke-width="3"/>
    <rect x="360" y="198" width="30" height="12" rx="4" fill="#eee" stroke="#cdbf9a" stroke-width="3"/>
    <rect x="360" y="226" width="30" height="22" rx="3" fill="#f3f7ef"/>
  </g>

  <!-- لبان green tag -->
  <g>
    <rect x="206" y="300" width="120" height="70" rx="16" fill="url(#lk-green)"/>
    <text x="266" y="350" text-anchor="middle" font-family="'Cairo','Tajawal',sans-serif" font-size="46" font-weight="800" fill="#fff">لبان</text>
  </g>

  <!-- main wordmark الكايد -->
  <text x="300" y="448" text-anchor="middle" font-family="'Cairo','Tajawal',sans-serif" font-size="130" font-weight="900"
        fill="url(#lk-word)" stroke="#fff" stroke-width="3" paint-order="stroke" stroke-linejoin="round">الكايد</text>

  <!-- tagline -->
  <g>
    <line x1="170" y1="478" x2="220" y2="478" stroke="url(#lk-gold)" stroke-width="3"/>
    <circle cx="232" cy="478" r="3" fill="#1f5e18"/>
    <text x="300" y="486" text-anchor="middle" font-family="'Tajawal',sans-serif" font-size="26" font-weight="700" fill="#1f5e18">أجبان وألبان طبيعية</text>
    <circle cx="368" cy="478" r="3" fill="#1f5e18"/>
    <line x1="380" y1="478" x2="430" y2="478" stroke="url(#lk-gold)" stroke-width="3"/>
  </g>

  <!-- bottom green ribbon with phone -->
  <g>
    <path d="M150 500h300c-10 30-50 52-150 56-100-4-140-26-150-56Z" fill="url(#lk-green)"/>
    <circle cx="252" cy="524" r="14" fill="#fff"/>
    <path d="M246 519c-1 8 5 14 13 13 2 0 3-2 2-4l-3-3c-1-1-3-1-4 0-2-1-4-3-5-5 1-1 1-3 0-4l-3-3c-2-1-4 0-4 2 0 2 1 3 1 4Z" fill="#1f5e18"/>
    <text x="320" y="533" text-anchor="middle" font-family="'Tajawal',sans-serif" font-size="30" font-weight="800" fill="#fff" letter-spacing="2">0791804639</text>
  </g>
</svg>
