<svg xmlns="http://www.w3.org/2000/svg" viewBox="0 0 320 200" role="img" aria-label="Houten jaloezieën">
  <rect width="320" height="200" fill="#efe7da"/>
  <rect x="84" y="28" width="152" height="146" rx="4" fill="#fff" stroke="#d8cdb8" stroke-width="2"/>
  <rect x="84" y="28" width="152" height="14" rx="4" fill="#9c7b4f"/>
  <g>
    <rect x="92" y="48" width="136" height="13" rx="2" fill="#c89a5e"/>
    <rect x="92" y="48" width="136" height="4" fill="#d9b074"/>
    <rect x="92" y="64" width="136" height="13" rx="2" fill="#bd8f54"/>
    <rect x="92" y="64" width="136" height="4" fill="#d3a96d"/>
    <rect x="92" y="80" width="136" height="13" rx="2" fill="#c89a5e"/>
    <rect x="92" y="80" width="136" height="4" fill="#d9b074"/>
    <rect x="92" y="96" width="136" height="13" rx="2" fill="#bd8f54"/>
    <rect x="92" y="96" width="136" height="4" fill="#d3a96d"/>
    <rect x="92" y="112" width="136" height="13" rx="2" fill="#c89a5e"/>
    <rect x="92" y="112" width="136" height="4" fill="#d9b074"/>
    <rect x="92" y="128" width="136" height="13" rx="2" fill="#bd8f54"/>
    <rect x="92" y="128" width="136" height="4" fill="#d3a96d"/>
    <rect x="92" y="144" width="136" height="13" rx="2" fill="#c89a5e"/>
    <rect x="92" y="144" width="136" height="4" fill="#d9b074"/>
  </g>
  <rect x="150" y="44" width="3" height="120" fill="#8a6a3f"/>
</svg>
