<svg xmlns="http://www.w3.org/2000/svg" xmlns:xlink="http://www.w3.org/1999/xlink" id="Laag_1" x="0px" y="0px" viewBox="0 0 1249.83 257.84" style="enable-background:new 0 0 1249.83 257.84;" xml:space="preserve"><style type="text/css">	.st0{fill:#FFFFFF;}	.st1{fill:url(#SVGID_1_);}	.st2{fill:url(#SVGID_00000123399044630375570610000007654531115284802977_);}	.st3{fill:url(#SVGID_00000183214684118763413940000002051226538448334225_);}	.st4{fill:url(#SVGID_00000143604815529388077450000009194303996610314369_);}	.st5{fill:url(#SVGID_00000124877321393009109000000015102307149060699776_);}	.st6{fill:url(#SVGID_00000047035917358385330000000004825350751620293260_);}	.st7{fill:url(#SVGID_00000024701949103559164510000017080707041635505583_);}	.st8{fill:url(#SVGID_00000168821020811123867970000016643375989339649718_);}	.st9{fill:url(#SVGID_00000110441983559314588510000002952833622894457752_);}	.st10{fill:url(#SVGID_00000041991720459202005450000017486147641033352633_);}	.st11{fill:url(#SVGID_00000039823203249350890860000003697087349424005542_);}	.st12{fill:url(#SVGID_00000004527580746792287420000010073542985917110686_);}	.st13{fill:url(#SVGID_00000116197484890311367980000008007382912415517113_);}	.st14{fill:url(#SVGID_00000021099503505167416690000009679561697230796435_);}	.st15{fill:url(#SVGID_00000116228351522822957730000012804662486518732727_);}	.st16{fill:url(#SVGID_00000098903164762819885400000003940782273636663723_);}	.st17{fill:url(#SVGID_00000108997988983277723830000007170431753450037638_);}	.st18{fill:url(#SVGID_00000059311314537053245820000009475167282659428528_);}	.st19{fill:url(#SVGID_00000008149391683697455950000016873381255855033004_);}	.st20{fill:url(#SVGID_00000089556011565531927310000003033557236679347103_);}	.st21{fill:url(#SVGID_00000168818768575425759850000012566558550905644988_);}	.st22{fill:url(#SVGID_00000007422965805056131850000011580840531711864757_);}	.st23{fill:url(#SVGID_00000105396042441364544690000009240272576434178999_);}	.st24{fill:url(#SVGID_00000160878684881421913340000000266843517829268633_);}	.st25{fill:url(#SVGID_00000173151683504219366020000012983265926690155918_);}	.st26{fill:url(#SVGID_00000088122386501778370040000010613887719168438442_);}	.st27{fill:url(#SVGID_00000169560124853588375030000012519335764756135099_);}	.st28{fill:url(#SVGID_00000055675638165285205790000018337070555937149364_);}	.st29{fill:url(#SVGID_00000142157384910260987630000006206269689244525207_);}	.st30{fill:url(#SVGID_00000021833678240555415640000011443843260877373843_);}	.st31{fill:url(#SVGID_00000098212135195981119290000007338105739010513071_);}	.st32{fill:url(#SVGID_00000044892452135356091610000007195623562537477524_);}	.st33{fill:url(#SVGID_00000081615948633137047140000015920328030052569519_);}	.st34{fill:url(#SVGID_00000010296635422908545280000006498395658131377313_);}	.st35{fill:url(#SVGID_00000143619322103266825850000011315751543050553740_);}	.st36{fill:url(#SVGID_00000044885965435631911630000011698676976256197778_);}	.st37{fill:url(#SVGID_00000098922099982820750980000005694124270016804500_);}	.st38{fill:url(#SVGID_00000179626759063655436550000007501538732892434824_);}	.st39{fill:url(#SVGID_00000041255286758587940680000003128484672269338284_);}	.st40{fill:url(#SVGID_00000115492266665001764880000002784510603478130873_);}	.st41{fill:url(#SVGID_00000145763873997748733320000010286307479866932643_);}	.st42{fill:url(#SVGID_00000075127353382497529880000005968318026444051363_);}	.st43{fill:url(#SVGID_00000109746568206240449900000017073501981789503112_);}	.st44{fill:url(#SVGID_00000092428605130688911070000014342251458210628532_);}	.st45{fill:url(#SVGID_00000029045881445433359910000015141938018559615376_);}	.st46{fill:url(#SVGID_00000139988736483238780000000016850905706778771388_);}	.st47{fill:url(#SVGID_00000020357744695800106880000002383913602875929265_);}	.st48{fill:url(#SVGID_00000151514656847628578910000007520587730246849447_);}</style><g>	<polygon class="st0" points="380.35,146.3 380.35,161.31 326.82,161.31 326.82,86.63 343.21,86.63 343.21,146.25 377.2,146.25   377.18,146.3  "></polygon>	<path class="st0" d="M343.21,146.3V86.63h-16.39v74.68h53.53V146.3H343.21z"></path>	<path class="st0" d="M440.53,103.44v57.87h-16.18v-8.27c-0.92,1.23-1.94,2.41-3.03,3.53c-1.1,1.12-2.33,2.12-3.67,2.99  c-1.35,0.87-2.84,1.56-4.47,2.07c-1.63,0.51-3.47,0.76-5.53,0.76c-6.17,0-10.95-1.91-14.31-5.72c-3.37-3.82-5.06-9.07-5.06-15.77  v-37.46h16.18v32.2c0,3.88,0.85,6.81,2.55,8.78c1.7,1.97,4.11,2.96,7.24,2.96c3.12,0,5.59-0.98,7.39-2.96  c1.81-1.97,2.72-4.9,2.72-8.78v-32.2H440.53z"></path>	<path class="st0" d="M424.35,103.44v32.2c0,3.88-0.91,6.81-2.72,8.78s-4.27,2.96-7.39,2.96c-3.13,0-5.54-0.98-7.24-2.96  c-1.7-1.97-2.55-4.9-2.55-8.78v-32.2h-16.18v37.46c0,6.7,1.69,11.95,5.06,15.77c3.37,3.81,8.14,5.72,14.31,5.72  c2.06,0,3.9-0.26,5.53-0.76c1.63-0.51,3.13-1.2,4.47-2.07c1.35-0.87,2.57-1.87,3.67-2.99c1.1-1.12,2.11-2.3,3.03-3.53v8.27h16.18  v-57.87H424.35z"></path>	<path class="st0" d="M494.21,142.31l9.47,9.72c-2.77,3.09-5.92,5.63-9.47,7.61s-8.16,2.97-13.83,2.97c-4.26,0-8.22-0.79-11.87-2.37  s-6.79-3.72-9.42-6.43c-2.62-2.7-4.68-5.87-6.17-9.5c-1.49-3.64-2.23-7.5-2.23-11.61v-0.21c0-4.1,0.74-7.99,2.23-11.66  c1.49-3.67,3.55-6.87,6.17-9.61c2.62-2.74,5.76-4.89,9.42-6.48c3.65-1.58,7.68-2.37,12.08-2.37c5.39,0,9.86,0.86,13.41,2.59  c3.55,1.73,6.67,4.1,9.37,7.12l-9.9,10.8c-1.84-1.95-3.74-3.49-5.69-4.64s-4.38-1.73-7.29-1.73c-2.06,0-3.92,0.42-5.59,1.24  c-1.67,0.83-3.12,1.96-4.36,3.4s-2.2,3.11-2.87,5.02c-0.67,1.91-1.01,3.94-1.01,6.1v0.22c0,2.23,0.34,4.32,1.01,6.26  c0.67,1.95,1.65,3.64,2.93,5.08s2.81,2.57,4.58,3.4c1.77,0.83,3.76,1.24,5.96,1.24c2.69,0,5.06-0.56,7.08-1.68  C490.21,145.67,492.22,144.18,494.21,142.31z"></path>	<path class="st0" d="M494.21,142.31c-1.99,1.87-3.99,3.36-6.01,4.48c-2.02,1.12-4.38,1.68-7.08,1.68c-2.2,0-4.19-0.41-5.96-1.24  s-3.3-1.96-4.58-3.4c-1.28-1.44-2.25-3.13-2.93-5.08c-0.67-1.94-1.01-4.03-1.01-6.26v-0.22c0-2.16,0.34-4.19,1.01-6.1  c0.67-1.91,1.63-3.58,2.87-5.02c1.24-1.44,2.69-2.57,4.36-3.4c1.67-0.83,3.53-1.24,5.59-1.24c2.91,0,5.34,0.58,7.29,1.73  s3.85,2.7,5.69,4.64l9.9-10.8c-2.7-3.02-5.82-5.4-9.37-7.12c-3.55-1.73-8.02-2.59-13.41-2.59c-4.4,0-8.42,0.79-12.08,2.37  c-3.65,1.58-6.79,3.74-9.42,6.48c-2.62,2.74-4.68,5.94-6.17,9.61c-1.49,3.67-2.23,7.56-2.23,11.66v0.21  c0,4.11,0.74,7.97,2.23,11.61c1.49,3.63,3.55,6.8,6.17,9.5c2.62,2.7,5.76,4.84,9.42,6.43c3.65,1.58,7.61,2.37,11.87,2.37  c5.68,0,10.29-0.99,13.83-2.97c3.55-1.98,6.7-4.52,9.47-7.61L494.21,142.31z"></path>	<polygon class="st0" points="544.69,126.22 567.14,161.31 548.62,161.31 533.73,137.67 528.08,143.71 528.08,161.31 511.91,161.31   511.91,82.49 528.08,82.49 528.08,124.49 547.03,103.44 566.4,103.44  "></polygon>	<polygon class="st0" points="571.85,103.44 571.18,104.14 570.91,103.44  "></polygon>	<path class="st0" d="M544.69,126.22l21.71-22.78h-19.37l-18.94,21.06v-42h-16.18v78.82h16.18v-17.6l5.64-6.05l14.9,23.64h18.52  L544.69,126.22z"></path>	<path class="st0" d="M630.3,103.44l-21.93,59.28c-1.06,2.95-2.2,5.45-3.4,7.5c-1.21,2.05-2.54,3.72-3.99,5.02s-3.1,2.23-4.95,2.81  c-1.85,0.58-3.98,0.86-6.39,0.86c-2.98,0-5.61-0.36-7.88-1.08s-4.44-1.69-6.49-2.91l5.43-11.88c1.06,0.65,2.22,1.19,3.46,1.62  c1.24,0.43,2.39,0.65,3.46,0.65c1.42,0,2.54-0.27,3.35-0.81s1.58-1.53,2.29-2.97l-22.08-57.38l-0.27-0.71h17.14l12.99,39.41  l12.45-39.41L630.3,103.44L630.3,103.44z"></path>	<path class="st0" d="M613.48,103.44l-12.45,39.41l-12.99-39.41H570.9l0.27,0.71l22.08,57.38c-0.71,1.44-1.47,2.43-2.29,2.97  s-1.93,0.81-3.35,0.81c-1.06,0-2.22-0.21-3.46-0.65c-1.24-0.43-2.4-0.97-3.46-1.62l-5.43,11.88c2.06,1.22,4.22,2.19,6.49,2.91  s4.89,1.08,7.88,1.08c2.41,0,4.54-0.29,6.39-0.86c1.84-0.58,3.49-1.51,4.95-2.81c1.45-1.3,2.79-2.97,3.99-5.02s2.34-4.55,3.4-7.5  l21.93-59.28L613.48,103.44L613.48,103.44z"></path>	<polygon class="st0" points="733.31,98.37 692.34,146.74 733.31,146.74 733.31,161.31 671.27,161.31 671.27,148.68 712.24,100.31   672.54,100.31 672.54,85.73 733.31,85.73  "></polygon>	<path class="st0" d="M733.31,85.73h-60.77v14.58h39.7l-40.98,48.37v12.63h62.05v-14.57h-40.97l40.97-48.37L733.31,85.73  L733.31,85.73z"></path>	<path class="st0" d="M799.72,120.55c-1.56-3.63-3.71-6.8-6.44-9.5s-5.98-4.82-9.73-6.37c-3.76-1.55-7.84-2.32-12.24-2.32  c-4.47,0-8.59,0.79-12.34,2.37c-3.76,1.58-7.03,3.74-9.79,6.48c-2.77,2.74-4.93,5.92-6.49,9.56c-1.57,3.63-2.35,7.54-2.35,11.71  v0.21c0,4.18,0.78,8.08,2.35,11.72c1.56,3.64,3.71,6.8,6.44,9.5s5.98,4.82,9.74,6.37c3.76,1.55,7.84,2.32,12.24,2.32  c4.47,0,8.59-0.79,12.35-2.37c3.76-1.58,7.02-3.74,9.79-6.48c2.77-2.74,4.93-5.92,6.49-9.56c1.56-3.63,2.34-7.54,2.34-11.71v-0.22  C802.06,128.09,801.28,124.19,799.72,120.55z M786.09,132.7c0,2.16-0.34,4.2-1.01,6.1c-0.68,1.91-1.65,3.58-2.93,5.02  c-1.28,1.44-2.82,2.57-4.63,3.4c-1.81,0.83-3.89,1.24-6.23,1.24c-2.27,0-4.31-0.43-6.12-1.3c-1.81-0.86-3.39-2.03-4.73-3.51  c-1.35-1.47-2.38-3.17-3.09-5.08c-0.71-1.9-1.06-3.94-1.06-6.1v-0.22c0-2.16,0.33-4.19,1.01-6.1c0.67-1.91,1.65-3.58,2.93-5.02  c1.28-1.44,2.82-2.57,4.63-3.4s3.88-1.24,6.22-1.24c2.2,0,4.22,0.43,6.07,1.3c1.84,0.86,3.44,2.03,4.79,3.51s2.37,3.17,3.08,5.07  c0.71,1.91,1.07,3.94,1.07,6.1V132.7z"></path>	<path class="st0" d="M799.72,120.55c-1.56-3.63-3.71-6.8-6.44-9.5s-5.98-4.82-9.73-6.37c-3.76-1.55-7.84-2.32-12.24-2.32  c-4.47,0-8.59,0.79-12.34,2.37c-3.76,1.58-7.03,3.74-9.79,6.48c-2.77,2.74-4.93,5.92-6.49,9.56c-1.57,3.63-2.35,7.54-2.35,11.71  v0.21c0,4.18,0.78,8.08,2.35,11.72c1.56,3.64,3.71,6.8,6.44,9.5s5.98,4.82,9.74,6.37c3.76,1.55,7.84,2.32,12.24,2.32  c4.47,0,8.59-0.79,12.35-2.37c3.76-1.58,7.02-3.74,9.79-6.48c2.77-2.74,4.93-5.92,6.49-9.56c1.56-3.63,2.34-7.54,2.34-11.71v-0.22  C802.06,128.09,801.28,124.19,799.72,120.55z M786.09,132.7c0,2.16-0.34,4.2-1.01,6.1c-0.68,1.91-1.65,3.58-2.93,5.02  c-1.28,1.44-2.82,2.57-4.63,3.4c-1.81,0.83-3.89,1.24-6.23,1.24c-2.27,0-4.31-0.43-6.12-1.3c-1.81-0.86-3.39-2.03-4.73-3.51  c-1.35-1.47-2.38-3.17-3.09-5.08c-0.71-1.9-1.06-3.94-1.06-6.1v-0.22c0-2.16,0.33-4.19,1.01-6.1c0.67-1.91,1.65-3.58,2.93-5.02  c1.28-1.44,2.82-2.57,4.63-3.4s3.88-1.24,6.22-1.24c2.2,0,4.22,0.43,6.07,1.3c1.84,0.86,3.44,2.03,4.79,3.51s2.37,3.17,3.08,5.07  c0.71,1.91,1.07,3.94,1.07,6.1V132.7z"></path>	<path class="st0" d="M864.33,123.84v37.46h-16.18v-32.2c0-3.88-0.85-6.8-2.55-8.78s-4.11-2.96-7.24-2.96s-5.59,0.99-7.4,2.96  s-2.72,4.9-2.72,8.78v32.2h-16.18v-57.87h16.18v8.28c0.92-1.24,1.94-2.41,3.04-3.53c1.1-1.12,2.32-2.12,3.67-2.99  c1.35-0.87,2.84-1.56,4.47-2.07c1.63-0.51,3.47-0.76,5.53-0.76c6.18,0,10.95,1.91,14.32,5.72  C862.64,111.9,864.33,117.15,864.33,123.84z"></path>	<path class="st0" d="M859.27,108.08c-3.37-3.81-8.14-5.72-14.32-5.72c-2.06,0-3.9,0.26-5.53,0.76c-1.63,0.51-3.13,1.19-4.47,2.07  c-1.35,0.87-2.57,1.87-3.67,2.99c-1.1,1.12-2.11,2.3-3.04,3.53v-8.28h-16.18v57.87h16.18v-32.2c0-3.88,0.91-6.8,2.72-8.78  c1.81-1.97,4.27-2.96,7.4-2.96c3.12,0,5.53,0.99,7.24,2.96s2.55,4.9,2.55,8.78v32.2h16.18v-37.46  C864.33,117.15,862.64,111.9,859.27,108.08z"></path>	<polygon class="st0" points="956.72,103.44 938.94,161.74 924.36,161.74 913.4,126.22 902.22,161.74 887.75,161.74 870.19,103.44   886.58,103.44 895.73,138.53 906.48,103.22 920.42,103.22 931.28,138.64 940.64,103.44  "></polygon>	<path class="st0" d="M940.64,103.44l-9.36,35.2l-10.86-35.41h-13.94l-10.75,35.3l-9.15-35.09h-16.39l17.56,58.3h14.47l11.18-35.52  l10.96,35.52h14.58l17.77-58.3H940.64z"></path>	<path class="st0" d="M1014,121.95c-1.1-3.78-2.8-7.12-5.11-10.04c-2.3-2.92-5.2-5.23-8.67-6.96c-3.48-1.73-7.59-2.59-12.35-2.59  c-4.18,0-8,0.79-11.44,2.37s-6.4,3.74-8.89,6.48c-2.48,2.74-4.42,5.94-5.8,9.61s-2.07,7.56-2.07,11.66v0.21  c0,4.47,0.74,8.51,2.23,12.15s3.57,6.79,6.22,9.45c2.66,2.67,5.82,4.71,9.47,6.15c3.65,1.44,7.61,2.16,11.87,2.16  c5.18,0,9.69-0.95,13.52-2.86c3.83-1.9,7.09-4.55,9.79-7.94l-9.26-8.31c-2.27,2.09-4.47,3.6-6.6,4.54c-2.13,0.93-4.54,1.4-7.24,1.4  c-3.62,0-6.65-0.95-9.1-2.86c-2.45-1.91-4.06-4.73-4.84-8.48h39.7c0.07-0.79,0.12-1.48,0.16-2.05c0.04-0.58,0.06-1.26,0.06-2.05  v-0.21C1015.66,129.68,1015.1,125.73,1014,121.95z M975.53,127.84c0.64-3.74,2.01-6.73,4.1-8.96c2.09-2.23,4.84-3.35,8.25-3.35  s6.14,1.13,8.2,3.4c2.06,2.27,3.33,5.24,3.83,8.91H975.53z"></path>	<path class="st0" d="M1014,121.95c-1.1-3.78-2.8-7.12-5.11-10.04c-2.3-2.92-5.2-5.23-8.67-6.96c-3.48-1.73-7.59-2.59-12.35-2.59  c-4.18,0-8,0.79-11.44,2.37s-6.4,3.74-8.89,6.48c-2.48,2.74-4.42,5.94-5.8,9.61s-2.07,7.56-2.07,11.66v0.21  c0,4.47,0.74,8.51,2.23,12.15s3.57,6.79,6.22,9.45c2.66,2.67,5.82,4.71,9.47,6.15c3.65,1.44,7.61,2.16,11.87,2.16  c5.18,0,9.69-0.95,13.52-2.86c3.83-1.9,7.09-4.55,9.79-7.94l-9.26-8.31c-2.27,2.09-4.47,3.6-6.6,4.54c-2.13,0.93-4.54,1.4-7.24,1.4  c-3.62,0-6.65-0.95-9.1-2.86c-2.45-1.91-4.06-4.73-4.84-8.48h39.7c0.07-0.79,0.12-1.48,0.16-2.05c0.04-0.58,0.06-1.26,0.06-2.05  v-0.21C1015.66,129.68,1015.1,125.73,1014,121.95z M975.53,127.84c0.64-3.74,2.01-6.73,4.1-8.96c2.09-2.23,4.84-3.35,8.25-3.35  s6.14,1.13,8.2,3.4c2.06,2.27,3.33,5.24,3.83,8.91H975.53z"></path>	<path class="st0" d="M1060.33,102.36v17.16h-0.85c-5.39,0-9.63,1.66-12.72,4.97s-4.63,8.46-4.63,15.44v21.38h-16.18v-57.87h16.18  v11.66c1.63-3.96,3.86-7.12,6.71-9.5C1051.67,103.22,1055.5,102.14,1060.33,102.36z"></path>	<path class="st0" d="M1048.84,105.6c-2.84,2.38-5.08,5.55-6.71,9.5v-11.66h-16.18v57.87h16.18v-21.38c0-6.98,1.54-12.13,4.63-15.44  c3.08-3.31,7.32-4.97,12.72-4.97h0.85v-17.16C1055.5,102.14,1051.67,103.22,1048.84,105.6z"></path>	<rect x="1068.19" y="103.44" class="st0" width="16.18" height="57.87"></rect>	<rect x="1067.77" y="82.49" class="st0" width="17.03" height="14.58"></rect>	<path class="st0" d="M1068.19,103.44v57.87h16.18v-57.87H1068.19z M1067.77,82.49v14.58h17.03V82.49H1067.77z"></path>	<path class="st0" d="M1150.14,123.84v37.46h-16.18v-32.2c0-3.88-0.85-6.8-2.55-8.78c-1.7-1.97-4.11-2.96-7.24-2.96  s-5.59,0.99-7.4,2.96s-2.71,4.9-2.71,8.78v32.2h-16.18v-57.87h16.18v8.28c0.92-1.24,1.93-2.41,3.03-3.53  c1.1-1.12,2.32-2.12,3.67-2.99c1.35-0.87,2.83-1.56,4.47-2.07c1.63-0.51,3.47-0.76,5.54-0.76c6.17,0,10.94,1.91,14.31,5.72  C1148.46,111.9,1150.14,117.15,1150.14,123.84z"></path>	<path class="st0" d="M1145.09,108.08c-3.37-3.81-8.14-5.72-14.31-5.72c-2.06,0-3.91,0.26-5.54,0.76c-1.63,0.51-3.12,1.19-4.47,2.07  c-1.35,0.87-2.57,1.87-3.67,2.99c-1.1,1.12-2.11,2.3-3.03,3.53v-8.28h-16.18v57.87h16.18v-32.2c0-3.88,0.91-6.8,2.71-8.78  c1.81-1.97,4.27-2.96,7.4-2.96c3.12,0,5.54,0.99,7.24,2.96s2.55,4.9,2.55,8.78v32.2h16.18v-37.46  C1150.14,117.15,1148.46,111.9,1145.09,108.08z"></path>	<path class="st0" d="M1203.74,103.44V111c-2.2-2.45-4.72-4.5-7.56-6.16c-2.84-1.65-6.46-2.48-10.86-2.48  c-3.26,0-6.42,0.59-9.47,1.78c-3.05,1.19-5.75,2.94-8.09,5.24c-2.34,2.3-4.22,5.13-5.64,8.48s-2.13,7.18-2.13,11.5v0.21  c0,4.32,0.69,8.15,2.08,11.5c1.38,3.35,3.25,6.17,5.59,8.48c2.34,2.3,5.04,4.05,8.09,5.24c3.05,1.18,6.24,1.78,9.58,1.78  c4.33,0,7.91-0.83,10.75-2.48c2.84-1.66,5.46-3.96,7.88-6.91v2.81c0,5.18-1.33,9.11-3.99,11.77s-6.76,3.99-12.29,3.99  c-3.83,0-7.26-0.47-10.27-1.4s-6.01-2.23-8.99-3.89l-5.54,12.31c3.62,1.94,7.56,3.44,11.81,4.48s8.73,1.57,13.41,1.57  c5.32,0,9.97-0.58,13.94-1.72c3.98-1.16,7.29-2.95,9.95-5.4c2.66-2.45,4.64-5.6,5.96-9.45c1.31-3.85,1.97-8.51,1.97-13.98v-44.81  h-16.18V103.44z M1203.95,129.57c0,1.95-0.36,3.74-1.06,5.4c-0.71,1.65-1.69,3.07-2.93,4.26c-1.24,1.19-2.71,2.1-4.42,2.75  c-1.7,0.65-3.55,0.97-5.53,0.97c-3.98,0-7.27-1.22-9.9-3.67c-2.62-2.45-3.93-5.69-3.93-9.72v-0.21c0-1.95,0.35-3.74,1.06-5.4  c0.71-1.65,1.68-3.07,2.93-4.26c1.24-1.19,2.69-2.1,4.37-2.75c1.66-0.65,3.49-0.97,5.48-0.97c1.98,0,3.83,0.33,5.53,0.97  c1.7,0.65,3.18,1.57,4.42,2.75c1.24,1.19,2.22,2.61,2.93,4.26c0.71,1.66,1.06,3.46,1.06,5.4v0.22H1203.95z"></path>	<path class="st0" d="M1203.74,103.44V111c-2.2-2.45-4.72-4.5-7.56-6.16c-2.84-1.65-6.46-2.48-10.86-2.48  c-3.26,0-6.42,0.59-9.47,1.78c-3.05,1.19-5.75,2.94-8.09,5.24c-2.34,2.3-4.22,5.13-5.64,8.48s-2.13,7.18-2.13,11.5v0.21  c0,4.32,0.69,8.15,2.08,11.5c1.38,3.35,3.25,6.17,5.59,8.48c2.34,2.3,5.04,4.05,8.09,5.24c3.05,1.18,6.24,1.78,9.58,1.78  c4.33,0,7.91-0.83,10.75-2.48c2.84-1.66,5.46-3.96,7.88-6.91v2.81c0,5.18-1.33,9.11-3.99,11.77s-6.76,3.99-12.29,3.99  c-3.83,0-7.26-0.47-10.27-1.4s-6.01-2.23-8.99-3.89l-5.54,12.31c3.62,1.94,7.56,3.44,11.81,4.48s8.73,1.57,13.41,1.57  c5.32,0,9.97-0.58,13.94-1.72c3.98-1.16,7.29-2.95,9.95-5.4c2.66-2.45,4.64-5.6,5.96-9.45c1.31-3.85,1.97-8.51,1.97-13.98v-44.81  h-16.18V103.44z M1203.95,129.57c0,1.95-0.36,3.74-1.06,5.4c-0.71,1.65-1.69,3.07-2.93,4.26c-1.24,1.19-2.71,2.1-4.42,2.75  c-1.7,0.65-3.55,0.97-5.53,0.97c-3.98,0-7.27-1.22-9.9-3.67c-2.62-2.45-3.93-5.69-3.93-9.72v-0.21c0-1.95,0.35-3.74,1.06-5.4  c0.71-1.65,1.68-3.07,2.93-4.26c1.24-1.19,2.69-2.1,4.37-2.75c1.66-0.65,3.49-0.97,5.48-0.97c1.98,0,3.83,0.33,5.53,0.97  c1.7,0.65,3.18,1.57,4.42,2.75c1.24,1.19,2.22,2.61,2.93,4.26c0.71,1.66,1.06,3.46,1.06,5.4v0.22H1203.95z"></path></g><g>	<g>					<linearGradient id="SVGID_1_" gradientUnits="userSpaceOnUse" x1="-17.5076" y1="88.2745" x2="180.2994" y2="310.2043" gradientTransform="matrix(1 0 0 -1 0 257.8898)">			<stop offset="0" style="stop-color:#EF7D00"></stop>			<stop offset="1" style="stop-color:#FFCC00"></stop>		</linearGradient>		<circle class="st1" cx="121.71" cy="13.42" r="7.24"></circle>					<linearGradient id="SVGID_00000026855694835446876450000015406996155661147275_" gradientUnits="userSpaceOnUse" x1="131.7278" y1="-44.7394" x2="329.5349" y2="177.1904" gradientTransform="matrix(1 0 0 -1 0 257.8898)">			<stop offset="0" style="stop-color:#EF7D00"></stop>			<stop offset="1" style="stop-color:#FFCC00"></stop>		</linearGradient>		<circle style="fill:url(#SVGID_00000026855694835446876450000015406996155661147275_);" cx="183.61" cy="244.42" r="7.24"></circle>	</g>	<g>					<linearGradient id="SVGID_00000101091941233826544150000003518760645633317522_" gradientUnits="userSpaceOnUse" x1="-32.0048" y1="101.1959" x2="165.8022" y2="323.1257" gradientTransform="matrix(1 0 0 -1 0 257.8898)">			<stop offset="0" style="stop-color:#EF7D00"></stop>			<stop offset="1" style="stop-color:#FFCC00"></stop>		</linearGradient>		<circle style="fill:url(#SVGID_00000101091941233826544150000003518760645633317522_);" cx="68.11" cy="44.37" r="7.24"></circle>					<linearGradient id="SVGID_00000127034994677062216230000016358108215274041265_" gradientUnits="userSpaceOnUse" x1="146.2306" y1="-57.6658" x2="344.0376" y2="164.264" gradientTransform="matrix(1 0 0 -1 0 257.8898)">			<stop offset="0" style="stop-color:#EF7D00"></stop>			<stop offset="1" style="stop-color:#FFCC00"></stop>		</linearGradient>		<circle style="fill:url(#SVGID_00000127034994677062216230000016358108215274041265_);" cx="237.22" cy="213.47" r="7.24"></circle>	</g>	<g>					<linearGradient id="SVGID_00000182504572200165401210000007417643291022819495_" gradientUnits="userSpaceOnUse" x1="-22.6292" y1="92.8393" x2="175.1779" y2="314.7691" gradientTransform="matrix(1 0 0 -1 0 257.8898)">			<stop offset="0" style="stop-color:#EF7D00"></stop>			<stop offset="1" style="stop-color:#FFCC00"></stop>		</linearGradient>		<circle style="fill:url(#SVGID_00000182504572200165401210000007417643291022819495_);" cx="37.16" cy="97.97" r="7.24"></circle>					<linearGradient id="SVGID_00000154386512004942697700000006317945393298497185_" gradientUnits="userSpaceOnUse" x1="136.8549" y1="-49.3093" x2="334.662" y2="172.6205" gradientTransform="matrix(1 0 0 -1 0 257.8898)">			<stop offset="0" style="stop-color:#EF7D00"></stop>			<stop offset="1" style="stop-color:#FFCC00"></stop>		</linearGradient>		<circle style="fill:url(#SVGID_00000154386512004942697700000006317945393298497185_);" cx="268.17" cy="159.87" r="7.24"></circle>	</g>	<g>					<linearGradient id="SVGID_00000126323862816189370110000010612037903743126681_" gradientUnits="userSpaceOnUse" x1="8.1171" y1="65.4351" x2="205.9241" y2="287.365" gradientTransform="matrix(1 0 0 -1 0 257.8898)">			<stop offset="0" style="stop-color:#EF7D00"></stop>			<stop offset="1" style="stop-color:#FFCC00"></stop>		</linearGradient>		<circle style="fill:url(#SVGID_00000126323862816189370110000010612037903743126681_);" cx="37.16" cy="159.87" r="7.24"></circle>					<linearGradient id="SVGID_00000093896445374762297390000018412037562501517728_" gradientUnits="userSpaceOnUse" x1="106.1087" y1="-21.905" x2="303.9157" y2="200.0248" gradientTransform="matrix(1 0 0 -1 0 257.8898)">			<stop offset="0" style="stop-color:#EF7D00"></stop>			<stop offset="1" style="stop-color:#FFCC00"></stop>		</linearGradient>		<circle style="fill:url(#SVGID_00000093896445374762297390000018412037562501517728_);" cx="268.17" cy="97.97" r="7.24"></circle>	</g>	<g>					<linearGradient id="SVGID_00000042002778274295220640000001684970830426502791_" gradientUnits="userSpaceOnUse" x1="51.9886" y1="26.3324" x2="249.7956" y2="248.2622" gradientTransform="matrix(1 0 0 -1 0 257.8898)">			<stop offset="0" style="stop-color:#EF7D00"></stop>			<stop offset="1" style="stop-color:#FFCC00"></stop>		</linearGradient>		<circle style="fill:url(#SVGID_00000042002778274295220640000001684970830426502791_);" cx="68.11" cy="213.47" r="7.24"></circle>					<linearGradient id="SVGID_00000143586701748762530280000013180803334969877654_" gradientUnits="userSpaceOnUse" x1="62.2373" y1="17.1977" x2="260.0443" y2="239.1275" gradientTransform="matrix(1 0 0 -1 0 257.8898)">			<stop offset="0" style="stop-color:#EF7D00"></stop>			<stop offset="1" style="stop-color:#FFCC00"></stop>		</linearGradient>		<circle style="fill:url(#SVGID_00000143586701748762530280000013180803334969877654_);" cx="237.22" cy="44.37" r="7.24"></circle>	</g>	<g>					<linearGradient id="SVGID_00000161619487168884337430000013439836457823066791_" gradientUnits="userSpaceOnUse" x1="97.232" y1="-13.9933" x2="295.039" y2="207.9366" gradientTransform="matrix(1 0 0 -1 0 257.8898)">			<stop offset="0" style="stop-color:#EF7D00"></stop>			<stop offset="1" style="stop-color:#FFCC00"></stop>		</linearGradient>		<circle style="fill:url(#SVGID_00000161619487168884337430000013439836457823066791_);" cx="121.71" cy="244.42" r="7.24"></circle>					<linearGradient id="SVGID_00000006707154050375529120000007888491409757019546_" gradientUnits="userSpaceOnUse" x1="16.9883" y1="57.5284" x2="214.7952" y2="279.4582" gradientTransform="matrix(1 0 0 -1 0 257.8898)">			<stop offset="0" style="stop-color:#EF7D00"></stop>			<stop offset="1" style="stop-color:#FFCC00"></stop>		</linearGradient>		<circle style="fill:url(#SVGID_00000006707154050375529120000007888491409757019546_);" cx="183.61" cy="13.42" r="7.24"></circle>	</g>			<linearGradient id="SVGID_00000081646240355953126710000003263589330388644997_" gradientUnits="userSpaceOnUse" x1="109.5675" y1="-24.9878" x2="307.3746" y2="196.942" gradientTransform="matrix(1 0 0 -1 0 257.8898)">		<stop offset="0" style="stop-color:#EF7D00"></stop>		<stop offset="1" style="stop-color:#FFCC00"></stop>	</linearGradient>	<circle style="fill:url(#SVGID_00000081646240355953126710000003263589330388644997_);" cx="152.66" cy="234.53" r="10.24"></circle>	<g>					<linearGradient id="SVGID_00000011026014075779831930000013802992797269984400_" gradientUnits="userSpaceOnUse" x1="4.6528" y1="68.5229" x2="202.4598" y2="290.4528" gradientTransform="matrix(1 0 0 -1 0 257.8898)">			<stop offset="0" style="stop-color:#EF7D00"></stop>			<stop offset="1" style="stop-color:#FFCC00"></stop>		</linearGradient>		<circle style="fill:url(#SVGID_00000011026014075779831930000013802992797269984400_);" cx="152.66" cy="23.31" r="10.24"></circle>		<g>							<linearGradient id="SVGID_00000091708322268849086420000009357764658275559338_" gradientUnits="userSpaceOnUse" x1="-17.7433" y1="88.4846" x2="180.0637" y2="310.4144" gradientTransform="matrix(1 0 0 -1 0 257.8898)">				<stop offset="0" style="stop-color:#EF7D00"></stop>				<stop offset="1" style="stop-color:#FFCC00"></stop>			</linearGradient>			<circle style="fill:url(#SVGID_00000091708322268849086420000009357764658275559338_);" cx="99.86" cy="37.46" r="10.24"></circle>							<linearGradient id="SVGID_00000167370484158471304340000016092133799395333530_" gradientUnits="userSpaceOnUse" x1="131.9692" y1="-44.9546" x2="329.7762" y2="176.9753" gradientTransform="matrix(1 0 0 -1 0 257.8898)">				<stop offset="0" style="stop-color:#EF7D00"></stop>				<stop offset="1" style="stop-color:#FFCC00"></stop>			</linearGradient>			<circle style="fill:url(#SVGID_00000167370484158471304340000016092133799395333530_);" cx="205.47" cy="220.38" r="10.24"></circle>		</g>		<g>							<linearGradient id="SVGID_00000165235532323501605130000004677160135451247278_" gradientUnits="userSpaceOnUse" x1="-20.0851" y1="90.5719" x2="177.7219" y2="312.5017" gradientTransform="matrix(1 0 0 -1 0 257.8898)">				<stop offset="0" style="stop-color:#EF7D00"></stop>				<stop offset="1" style="stop-color:#FFCC00"></stop>			</linearGradient>			<circle style="fill:url(#SVGID_00000165235532323501605130000004677160135451247278_);" cx="61.2" cy="76.12" r="10.24"></circle>							<linearGradient id="SVGID_00000144334154633480178330000000541577220669888644_" gradientUnits="userSpaceOnUse" x1="134.3054" y1="-47.0368" x2="332.1124" y2="174.893" gradientTransform="matrix(1 0 0 -1 0 257.8898)">				<stop offset="0" style="stop-color:#EF7D00"></stop>				<stop offset="1" style="stop-color:#FFCC00"></stop>			</linearGradient>			<circle style="fill:url(#SVGID_00000144334154633480178330000000541577220669888644_);" cx="244.12" cy="181.72" r="10.24"></circle>		</g>		<g>							<linearGradient id="SVGID_00000150787232642720386350000009245742637669970618_" gradientUnits="userSpaceOnUse" x1="-1.7389" y1="74.2198" x2="196.0682" y2="296.1496" gradientTransform="matrix(1 0 0 -1 0 257.8898)">				<stop offset="0" style="stop-color:#EF7D00"></stop>				<stop offset="1" style="stop-color:#FFCC00"></stop>			</linearGradient>			<circle style="fill:url(#SVGID_00000150787232642720386350000009245742637669970618_);" cx="47.06" cy="128.92" r="10.24"></circle>							<linearGradient id="SVGID_00000062168710927684947330000001409554796465562016_" gradientUnits="userSpaceOnUse" x1="115.9647" y1="-30.6897" x2="313.7718" y2="191.2401" gradientTransform="matrix(1 0 0 -1 0 257.8898)">				<stop offset="0" style="stop-color:#EF7D00"></stop>				<stop offset="1" style="stop-color:#FFCC00"></stop>			</linearGradient>			<circle style="fill:url(#SVGID_00000062168710927684947330000001409554796465562016_);" cx="258.27" cy="128.92" r="10.24"></circle>		</g>		<g>							<linearGradient id="SVGID_00000168119092913836407090000000536415304191592577_" gradientUnits="userSpaceOnUse" x1="32.3673" y1="43.821" x2="230.1743" y2="265.7508" gradientTransform="matrix(1 0 0 -1 0 257.8898)">				<stop offset="0" style="stop-color:#EF7D00"></stop>				<stop offset="1" style="stop-color:#FFCC00"></stop>			</linearGradient>			<circle style="fill:url(#SVGID_00000168119092913836407090000000536415304191592577_);" cx="61.2" cy="181.72" r="10.24"></circle>							<linearGradient id="SVGID_00000172430054550299302370000009059269619219424189_" gradientUnits="userSpaceOnUse" x1="81.853" y1="-0.2859" x2="279.66" y2="221.644" gradientTransform="matrix(1 0 0 -1 0 257.8898)">				<stop offset="0" style="stop-color:#EF7D00"></stop>				<stop offset="1" style="stop-color:#FFCC00"></stop>			</linearGradient>			<circle style="fill:url(#SVGID_00000172430054550299302370000009059269619219424189_);" cx="244.12" cy="76.12" r="10.24"></circle>		</g>		<g>							<linearGradient id="SVGID_00000163062327603280398160000007721973674282083499_" gradientUnits="userSpaceOnUse" x1="73.1146" y1="7.5028" x2="270.9216" y2="229.4325" gradientTransform="matrix(1 0 0 -1 0 257.8898)">				<stop offset="0" style="stop-color:#EF7D00"></stop>				<stop offset="1" style="stop-color:#FFCC00"></stop>			</linearGradient>			<circle style="fill:url(#SVGID_00000163062327603280398160000007721973674282083499_);" cx="99.86" cy="220.38" r="10.24"></circle>							<linearGradient id="SVGID_00000139265866524410828260000001636801025381124255_" gradientUnits="userSpaceOnUse" x1="41.1113" y1="36.0274" x2="238.9183" y2="257.9572" gradientTransform="matrix(1 0 0 -1 0 257.8898)">				<stop offset="0" style="stop-color:#EF7D00"></stop>				<stop offset="1" style="stop-color:#FFCC00"></stop>			</linearGradient>			<circle style="fill:url(#SVGID_00000139265866524410828260000001636801025381124255_);" cx="205.47" cy="37.46" r="10.24"></circle>		</g>	</g>	<g>					<linearGradient id="SVGID_00000057128408373851855560000001431552973186574520_" gradientUnits="userSpaceOnUse" x1="20.6815" y1="54.2365" x2="218.4886" y2="276.1663" gradientTransform="matrix(1 0 0 -1 0 257.8898)">			<stop offset="0" style="stop-color:#EF7D00"></stop>			<stop offset="1" style="stop-color:#FFCC00"></stop>		</linearGradient>		<circle style="fill:url(#SVGID_00000057128408373851855560000001431552973186574520_);" cx="152.66" cy="55.58" r="10.24"></circle>					<linearGradient id="SVGID_00000037660129376357748070000014912621901745408661_" gradientUnits="userSpaceOnUse" x1="93.5387" y1="-10.7014" x2="291.3458" y2="211.2284" gradientTransform="matrix(1 0 0 -1 0 257.8898)">			<stop offset="0" style="stop-color:#EF7D00"></stop>			<stop offset="1" style="stop-color:#FFCC00"></stop>		</linearGradient>		<circle style="fill:url(#SVGID_00000037660129376357748070000014912621901745408661_);" cx="152.66" cy="202.26" r="10.24"></circle>		<g>							<linearGradient id="SVGID_00000107568880801811424130000003857494977519547551_" gradientUnits="userSpaceOnUse" x1="5.1237" y1="68.1032" x2="202.9307" y2="290.033" gradientTransform="matrix(1 0 0 -1 0 257.8898)">				<stop offset="0" style="stop-color:#EF7D00"></stop>				<stop offset="1" style="stop-color:#FFCC00"></stop>			</linearGradient>			<circle style="fill:url(#SVGID_00000107568880801811424130000003857494977519547551_);" cx="115.99" cy="65.4" r="10.24"></circle>							<linearGradient id="SVGID_00000059996812702170563810000015296297244114101943_" gradientUnits="userSpaceOnUse" x1="109.0966" y1="-24.5681" x2="306.9036" y2="197.3616" gradientTransform="matrix(1 0 0 -1 0 257.8898)">				<stop offset="0" style="stop-color:#EF7D00"></stop>				<stop offset="1" style="stop-color:#FFCC00"></stop>			</linearGradient>			<circle style="fill:url(#SVGID_00000059996812702170563810000015296297244114101943_);" cx="189.33" cy="192.44" r="10.24"></circle>		</g>		<g>							<linearGradient id="SVGID_00000033342055877554735230000017758145718475829937_" gradientUnits="userSpaceOnUse" x1="3.5029" y1="69.5479" x2="201.3098" y2="291.4777" gradientTransform="matrix(1 0 0 -1 0 257.8898)">				<stop offset="0" style="stop-color:#EF7D00"></stop>				<stop offset="1" style="stop-color:#FFCC00"></stop>			</linearGradient>			<circle style="fill:url(#SVGID_00000033342055877554735230000017758145718475829937_);" cx="89.15" cy="92.25" r="10.24"></circle>							<linearGradient id="SVGID_00000124866423552683605840000017913134277078279599_" gradientUnits="userSpaceOnUse" x1="110.7229" y1="-26.0178" x2="308.53" y2="195.912" gradientTransform="matrix(1 0 0 -1 0 257.8898)">				<stop offset="0" style="stop-color:#EF7D00"></stop>				<stop offset="1" style="stop-color:#FFCC00"></stop>			</linearGradient>			<circle style="fill:url(#SVGID_00000124866423552683605840000017913134277078279599_);" cx="216.18" cy="165.59" r="10.24"></circle>		</g>		<g>							<linearGradient id="SVGID_00000090296325765728939520000006339673077262486946_" gradientUnits="userSpaceOnUse" x1="16.239" y1="58.1961" x2="214.0461" y2="280.1259" gradientTransform="matrix(1 0 0 -1 0 257.8898)">				<stop offset="0" style="stop-color:#EF7D00"></stop>				<stop offset="1" style="stop-color:#FFCC00"></stop>			</linearGradient>			<circle style="fill:url(#SVGID_00000090296325765728939520000006339673077262486946_);" cx="79.32" cy="128.92" r="10.24"></circle>							<linearGradient id="SVGID_00000071530061350934012160000007404661682091328425_" gradientUnits="userSpaceOnUse" x1="97.9867" y1="-14.666" x2="295.7938" y2="207.2638" gradientTransform="matrix(1 0 0 -1 0 257.8898)">				<stop offset="0" style="stop-color:#EF7D00"></stop>				<stop offset="1" style="stop-color:#FFCC00"></stop>			</linearGradient>			<circle style="fill:url(#SVGID_00000071530061350934012160000007404661682091328425_);" cx="226.01" cy="128.92" r="10.24"></circle>		</g>		<g>							<linearGradient id="SVGID_00000170972316933778331210000000491398995378968497_" gradientUnits="userSpaceOnUse" x1="39.9314" y1="37.079" x2="237.7385" y2="259.0088" gradientTransform="matrix(1 0 0 -1 0 257.8898)">				<stop offset="0" style="stop-color:#EF7D00"></stop>				<stop offset="1" style="stop-color:#FFCC00"></stop>			</linearGradient>			<circle style="fill:url(#SVGID_00000170972316933778331210000000491398995378968497_);" cx="89.15" cy="165.59" r="10.24"></circle>							<linearGradient id="SVGID_00000039813860145504238670000009563185689864410758_" gradientUnits="userSpaceOnUse" x1="74.2943" y1="6.4512" x2="272.1014" y2="228.3809" gradientTransform="matrix(1 0 0 -1 0 257.8898)">				<stop offset="0" style="stop-color:#EF7D00"></stop>				<stop offset="1" style="stop-color:#FFCC00"></stop>			</linearGradient>			<circle style="fill:url(#SVGID_00000039813860145504238670000009563185689864410758_);" cx="216.18" cy="92.25" r="10.24"></circle>		</g>		<g>							<linearGradient id="SVGID_00000175322716565737939730000014493456811199097252_" gradientUnits="userSpaceOnUse" x1="68.2255" y1="11.8604" x2="266.0325" y2="233.7902" gradientTransform="matrix(1 0 0 -1 0 257.8898)">				<stop offset="0" style="stop-color:#EF7D00"></stop>				<stop offset="1" style="stop-color:#FFCC00"></stop>			</linearGradient>			<circle style="fill:url(#SVGID_00000175322716565737939730000014493456811199097252_);" cx="115.99" cy="192.44" r="10.24"></circle>							<linearGradient id="SVGID_00000173137124186754630300000012399062229030678669_" gradientUnits="userSpaceOnUse" x1="45.9948" y1="31.6747" x2="243.8018" y2="253.6045" gradientTransform="matrix(1 0 0 -1 0 257.8898)">				<stop offset="0" style="stop-color:#EF7D00"></stop>				<stop offset="1" style="stop-color:#FFCC00"></stop>			</linearGradient>			<circle style="fill:url(#SVGID_00000173137124186754630300000012399062229030678669_);" cx="189.33" cy="65.4" r="10.24"></circle>		</g>	</g>	<g>		<g>							<linearGradient id="SVGID_00000090998681805344000620000010748788494541318064_" gradientUnits="userSpaceOnUse" x1="0.524" y1="72.2029" x2="198.331" y2="294.1327" gradientTransform="matrix(1 0 0 -1 0 257.8898)">				<stop offset="0" style="stop-color:#EF7D00"></stop>				<stop offset="1" style="stop-color:#FFCC00"></stop>			</linearGradient>			<circle style="fill:url(#SVGID_00000090998681805344000620000010748788494541318064_);" cx="129.19" cy="41.33" r="12.67"></circle>							<linearGradient id="SVGID_00000054241739435949879350000016359692781619885480_" gradientUnits="userSpaceOnUse" x1="113.6962" y1="-28.6678" x2="311.5032" y2="193.2621" gradientTransform="matrix(1 0 0 -1 0 257.8898)">				<stop offset="0" style="stop-color:#EF7D00"></stop>				<stop offset="1" style="stop-color:#FFCC00"></stop>			</linearGradient>			<circle style="fill:url(#SVGID_00000054241739435949879350000016359692781619885480_);" cx="176.13" cy="216.51" r="12.67"></circle>		</g>		<g>							<linearGradient id="SVGID_00000044138305102625202430000011378700369266206854_" gradientUnits="userSpaceOnUse" x1="-10.4717" y1="82.0035" x2="187.3353" y2="303.9333" gradientTransform="matrix(1 0 0 -1 0 257.8898)">				<stop offset="0" style="stop-color:#EF7D00"></stop>				<stop offset="1" style="stop-color:#FFCC00"></stop>			</linearGradient>			<circle style="fill:url(#SVGID_00000044138305102625202430000011378700369266206854_);" cx="88.54" cy="64.8" r="12.67"></circle>							<linearGradient id="SVGID_00000098181286301166600960000001617158227394155904_" gradientUnits="userSpaceOnUse" x1="124.6975" y1="-38.4733" x2="322.5046" y2="183.4565" gradientTransform="matrix(1 0 0 -1 0 257.8898)">				<stop offset="0" style="stop-color:#EF7D00"></stop>				<stop offset="1" style="stop-color:#FFCC00"></stop>			</linearGradient>			<circle style="fill:url(#SVGID_00000098181286301166600960000001617158227394155904_);" cx="216.79" cy="193.04" r="12.67"></circle>		</g>		<g>							<linearGradient id="SVGID_00000127755583031298086170000015101544141829747386_" gradientUnits="userSpaceOnUse" x1="-3.36" y1="75.6648" x2="194.447" y2="297.5945" gradientTransform="matrix(1 0 0 -1 0 257.8898)">				<stop offset="0" style="stop-color:#EF7D00"></stop>				<stop offset="1" style="stop-color:#FFCC00"></stop>			</linearGradient>			<circle style="fill:url(#SVGID_00000127755583031298086170000015101544141829747386_);" cx="65.07" cy="105.45" r="12.67"></circle>							<linearGradient id="SVGID_00000088118409949937936740000014157122571616114563_" gradientUnits="userSpaceOnUse" x1="117.5858" y1="-32.1347" x2="315.3928" y2="189.7952" gradientTransform="matrix(1 0 0 -1 0 257.8898)">				<stop offset="0" style="stop-color:#EF7D00"></stop>				<stop offset="1" style="stop-color:#FFCC00"></stop>			</linearGradient>			<circle style="fill:url(#SVGID_00000088118409949937936740000014157122571616114563_);" cx="240.26" cy="152.39" r="12.67"></circle>		</g>		<g>							<linearGradient id="SVGID_00000028306052123612388420000009501329177082153896_" gradientUnits="userSpaceOnUse" x1="19.9555" y1="54.8836" x2="217.7626" y2="276.8134" gradientTransform="matrix(1 0 0 -1 0 257.8898)">				<stop offset="0" style="stop-color:#EF7D00"></stop>				<stop offset="1" style="stop-color:#FFCC00"></stop>			</linearGradient>			<circle style="fill:url(#SVGID_00000028306052123612388420000009501329177082153896_);" cx="65.07" cy="152.39" r="12.67"></circle>							<linearGradient id="SVGID_00000053523186774992658540000001892464896153688976_" gradientUnits="userSpaceOnUse" x1="94.2703" y1="-11.3535" x2="292.0774" y2="210.5764" gradientTransform="matrix(1 0 0 -1 0 257.8898)">				<stop offset="0" style="stop-color:#EF7D00"></stop>				<stop offset="1" style="stop-color:#FFCC00"></stop>			</linearGradient>			<circle style="fill:url(#SVGID_00000053523186774992658540000001892464896153688976_);" cx="240.26" cy="105.45" r="12.67"></circle>		</g>		<g>							<linearGradient id="SVGID_00000119835363848738246740000001737719335346655148_" gradientUnits="userSpaceOnUse" x1="53.2261" y1="25.2294" x2="251.0332" y2="247.1592" gradientTransform="matrix(1 0 0 -1 0 257.8898)">				<stop offset="0" style="stop-color:#EF7D00"></stop>				<stop offset="1" style="stop-color:#FFCC00"></stop>			</linearGradient>			<circle style="fill:url(#SVGID_00000119835363848738246740000001737719335346655148_);" cx="88.54" cy="193.04" r="12.67"></circle>							<linearGradient id="SVGID_00000082362704360179614970000000738531301440518548_" gradientUnits="userSpaceOnUse" x1="60.9996" y1="18.3008" x2="258.8067" y2="240.2305" gradientTransform="matrix(1 0 0 -1 0 257.8898)">				<stop offset="0" style="stop-color:#EF7D00"></stop>				<stop offset="1" style="stop-color:#FFCC00"></stop>			</linearGradient>			<circle style="fill:url(#SVGID_00000082362704360179614970000000738531301440518548_);" cx="216.79" cy="64.8" r="12.67"></circle>		</g>		<g>							<linearGradient id="SVGID_00000129917278712226406470000008035928814765905855_" gradientUnits="userSpaceOnUse" x1="87.5374" y1="-5.3523" x2="285.3445" y2="216.5774" gradientTransform="matrix(1 0 0 -1 0 257.8898)">				<stop offset="0" style="stop-color:#EF7D00"></stop>				<stop offset="1" style="stop-color:#FFCC00"></stop>			</linearGradient>			<circle style="fill:url(#SVGID_00000129917278712226406470000008035928814765905855_);" cx="129.19" cy="216.51" r="12.67"></circle>							<linearGradient id="SVGID_00000031892663937563856360000011226143107585011357_" gradientUnits="userSpaceOnUse" x1="26.6829" y1="48.8874" x2="224.4899" y2="270.8173" gradientTransform="matrix(1 0 0 -1 0 257.8898)">				<stop offset="0" style="stop-color:#EF7D00"></stop>				<stop offset="1" style="stop-color:#FFCC00"></stop>			</linearGradient>			<circle style="fill:url(#SVGID_00000031892663937563856360000011226143107585011357_);" cx="176.13" cy="41.33" r="12.67"></circle>		</g>	</g></g></svg>