<svg xmlns="http://www.w3.org/2000/svg" viewBox="0 0 360 320" role="img" aria-label="Rolluik op maat">
  <defs>
    <linearGradient id="slat" x1="0" y1="0" x2="0" y2="1">
      <stop offset="0" stop-color="#454f59"/>
      <stop offset="1" stop-color="#333c44"/>
    </linearGradient>
  </defs>
  <rect x="70" y="30" width="220" height="40" rx="5" fill="#2b3640"/>
  <rect x="74" y="34" width="212" height="6" rx="3" fill="#3c4751"/>
  <rect x="62" y="66" width="14" height="220" fill="#aab4bd"/>
  <rect x="284" y="66" width="14" height="220" fill="#aab4bd"/>
  <g fill="url(#slat)">
    <rect x="78" y="72" width="204" height="14" rx="3"/>
    <rect x="78" y="89" width="204" height="14" rx="3"/>
    <rect x="78" y="106" width="204" height="14" rx="3"/>
    <rect x="78" y="123" width="204" height="14" rx="3"/>
    <rect x="78" y="140" width="204" height="14" rx="3"/>
    <rect x="78" y="157" width="204" height="14" rx="3"/>
    <rect x="78" y="174" width="204" height="14" rx="3"/>
    <rect x="78" y="191" width="204" height="14" rx="3"/>
    <rect x="78" y="208" width="204" height="14" rx="3"/>
    <rect x="78" y="225" width="204" height="14" rx="3"/>
    <rect x="78" y="242" width="204" height="14" rx="3"/>
    <rect x="78" y="259" width="204" height="14" rx="3"/>
  </g>
  <rect x="78" y="276" width="204" height="10" rx="3" fill="#222a30"/>
</svg>
