<svg xmlns="http://www.w3.org/2000/svg" viewBox="0 0 320 200" role="img" aria-label="Rolluik">
  <rect width="320" height="200" fill="#eef2f6"/>
  <rect x="86" y="34" width="148" height="132" rx="4" fill="#cfd8e0"/>
  <rect x="86" y="34" width="148" height="22" rx="4" fill="#2b3640"/>
  <g fill="#3a4651">
    <rect x="92" y="60" width="136" height="9" rx="2"/>
    <rect x="92" y="72" width="136" height="9" rx="2"/>
    <rect x="92" y="84" width="136" height="9" rx="2"/>
    <rect x="92" y="96" width="136" height="9" rx="2"/>
    <rect x="92" y="108" width="136" height="9" rx="2"/>
    <rect x="92" y="120" width="136" height="9" rx="2"/>
    <rect x="92" y="132" width="136" height="9" rx="2"/>
    <rect x="92" y="144" width="136" height="9" rx="2"/>
  </g>
  <rect x="84" y="32" width="6" height="134" fill="#9aa7b2"/>
  <rect x="230" y="32" width="6" height="134" fill="#9aa7b2"/>
</svg>
