<svg width="1200" height="630" viewBox="0 0 1200 630" fill="none" xmlns="http://www.w3.org/2000/svg">
  <defs>
    <linearGradient id="og" x1="0" y1="0" x2="1200" y2="630" gradientUnits="userSpaceOnUse">
      <stop stop-color="#1A1A1A"/><stop offset="1" stop-color="#0A0A0A"/>
    </linearGradient>
    <radialGradient id="ogGlow" cx="0" cy="0" r="1" gradientTransform="translate(980 120) rotate(135) scale(620)">
      <stop stop-color="#FF6B00" stop-opacity="0.45"/><stop offset="1" stop-color="#FF6B00" stop-opacity="0"/>
    </radialGradient>
    <linearGradient id="ogOrange" x1="90" y1="150" x2="270" y2="330" gradientUnits="userSpaceOnUse">
      <stop stop-color="#FF8A2B"/><stop offset="1" stop-color="#FF6B00"/>
    </linearGradient>
  </defs>
  <rect width="1200" height="630" fill="url(#og)"/>
  <rect width="1200" height="630" fill="url(#ogGlow)"/>
  <!-- Mark -->
  <rect x="96" y="150" width="150" height="150" rx="36" fill="#111111" stroke="#2A2A2A"/>
  <rect x="129" y="258" width="84" height="11" rx="5.5" fill="#005BFF"/>
  <path d="M127 180 L143 180 L156 235 L169 188 L186 188 L199 235 L212 180 L228 180 L206 280 L188 280 L177 232 L166 280 L148 280 Z" fill="url(#ogOrange)"/>
  <circle cx="177" cy="168" r="6" fill="#FF6B00"/>
  <text x="98" y="400" font-family="'Inter','Segoe UI',Arial,sans-serif" font-size="78" font-weight="800" letter-spacing="1" fill="#FFFFFF">WESTRIK</text>
  <text x="102" y="452" font-family="'Inter','Segoe UI',Arial,sans-serif" font-size="26" font-weight="600" letter-spacing="6" fill="#FF6B00">BOUW &amp; INSTALLATIES</text>
  <text x="100" y="528" font-family="'Inter','Segoe UI',Arial,sans-serif" font-size="30" font-weight="500" fill="#C9C9C9">CV-ketels · Loodgieterswerk · Zinkwerk · Badkamers</text>
  <!-- Rating chip -->
  <rect x="820" y="470" width="290" height="64" rx="32" fill="#FFFFFF" fill-opacity="0.06" stroke="#FFFFFF" stroke-opacity="0.12"/>
  <text x="852" y="511" font-family="'Inter',Arial,sans-serif" font-size="26" font-weight="700" fill="#FF6B00">★ 5,0</text>
  <text x="930" y="511" font-family="'Inter',Arial,sans-serif" font-size="22" font-weight="500" fill="#FFFFFF">uit 64 reviews</text>
</svg>
